<svg width="800" height="550" viewBox="0 0 800 550" fill="none" xmlns="http://www.w3.org/2000/svg">
<g clip-path="url(#clip0_43_536)">
<mask id="mask0_43_536" style="mask-type:luminance" maskUnits="userSpaceOnUse" x="0" y="0" width="800" height="550">
<path d="M800 0H0V550H800V0Z" fill="white"/>
</mask>
<g mask="url(#mask0_43_536)">
<path d="M673.114 244.937C673.114 244.937 671.096 266.704 666.052 278.052C661.008 289.411 649.9 298.867 648.891 303.601C647.882 308.335 645.865 349.966 645.865 349.966" stroke="#363636" stroke-linecap="round" stroke-linejoin="round"/>
<path d="M645.865 362.254V380.238" stroke="#363636" stroke-linecap="round" stroke-linejoin="round"/>
<path d="M163.376 263.664C163.376 263.664 165.394 296.779 188.608 312.86" stroke="#363636" stroke-linecap="round" stroke-linejoin="round"/>
<path d="M162.368 254.208C162.368 254.208 162.368 240.957 165.394 231.501" stroke="#363636" stroke-linecap="round" stroke-linejoin="round"/>
<path d="M790.016 503.774C769.284 507.939 769.284 534.301 754.489 531.528C739.682 528.755 772.253 506.547 779.662 477.401C787.06 448.254 757.457 428.831 748.575 448.254C739.693 467.677 744.134 514.866 738.209 512.093C732.284 509.32 742.65 414.942 718.961 395.519C695.272 376.084 674.54 398.292 681.949 438.543C689.347 478.793 721.918 514.866 710.079 517.651C698.24 520.424 684.906 476.02 667.142 457.977C649.378 439.935 634.571 453.812 646.41 480.185C658.248 506.559 713.036 548.19 713.036 548.19C713.036 548.19 701.348 551.323 679.653 534.371C657.959 517.419 647.766 517.732 643.488 524.508C639.209 531.284 648.416 538.374 657.298 541.147" stroke="#363636" stroke-linecap="round" stroke-linejoin="round"/>
<path d="M159.341 401.054C159.341 401.054 187.599 405.788 185.581 417.135C183.564 428.495 148.233 427.543 119.976 442.685C91.7181 457.827 117.958 476.751 111.905 494.724C105.853 512.697 36.2002 537.306 36.2002 537.306" stroke="#363636" stroke-linecap="round" stroke-linejoin="round"/>
<path d="M375.975 185.948C384.509 183.581 393.762 180.669 401.136 175.923C415.897 166.443 413.16 162.046 404.881 148.726C381.32 110.842 463.507 100.527 486.697 98.3809" stroke="#363636" stroke-linecap="round" stroke-linejoin="round"/>
<path d="M736.273 30.4576C738.406 26.0253 741.189 21.1985 745.978 18.4602C751.126 15.5131 756.576 14.3528 761.515 12.7864" stroke="#363636" stroke-linecap="round" stroke-linejoin="round"/>
<path d="M599.727 83.2392C599.727 83.2392 682.761 89.7252 710.45 76.7532C722.787 70.975 727.101 61.3214 729.942 51.3545" stroke="#363636" stroke-linecap="round" stroke-linejoin="round"/>
<path d="M573.557 100.864C573.557 100.864 565.568 109.844 565.568 118.082C565.568 126.32 568.757 137.54 570.357 148.772C571.957 160.004 561.568 180.216 561.568 180.216C561.568 180.216 575.54 170.237 578.334 165.248C581.129 160.259 583.923 151.023 583.923 151.023C583.923 151.023 591.112 145.778 591.912 139.791C592.712 133.804 594.312 130.057 594.312 122.573C594.312 115.089 588.724 97.1276 573.545 100.864H573.557Z" fill="white"/>
<path d="M485.723 186.957L525.646 193.699L534.435 184.718L528.046 181.724C528.046 181.724 491.312 184.718 485.723 186.969V186.957Z" fill="white"/>
<path d="M387.5 458.674V564.214H404.267V445.191C404.267 445.191 397.878 453.429 387.5 458.662V458.674Z" fill="white"/>
<path d="M377.111 325.426C377.111 325.426 385.1 353.122 381.9 365.096C378.711 377.07 373.911 387.548 369.922 392.038C365.933 396.528 346.766 413.747 342.766 413.747C342.766 413.747 365.922 411.496 380.3 400.276C394.678 389.045 406.656 371.083 408.244 355.361C409.844 339.639 401.855 321.678 401.855 321.678H383.488L377.099 325.426H377.111Z" fill="white"/>
<path d="M324.411 181.713L296.466 188.454C296.466 188.454 349.967 200.428 373.922 222.891L400.278 218.401C400.278 218.401 382.711 194.453 324.411 181.724V181.713Z" fill="white"/>
<path d="M575.157 179.462C575.157 179.462 578.346 183.209 579.946 190.693C581.546 198.177 581.546 201.171 581.546 201.171C581.546 201.171 589.535 198.92 606.302 204.164C623.069 209.409 640.635 210.906 630.258 213.145C619.88 215.384 603.102 210.151 616.68 216.138C630.258 222.126 639.035 216.893 642.236 225.119C645.424 233.357 646.224 261.796 640.635 263.293C635.047 264.789 619.08 257.305 619.08 264.047C619.08 270.788 631.858 273.027 630.258 282.762C628.658 292.497 627.069 298.484 620.68 305.968C614.291 313.452 605.502 305.214 598.324 303.717C591.135 302.22 601.513 309.704 603.113 320.936C604.713 332.167 593.536 338.897 593.536 338.897C593.536 338.897 581.558 320.181 583.158 328.42C584.758 336.658 589.547 344.884 588.747 350.129C587.947 355.373 574.369 351.625 571.98 343.387C569.58 335.149 556.906 320.518 555.213 327.665C553.521 334.824 563.203 347.123 564.003 356.116C564.803 365.096 556.014 373.334 556.014 373.334L545.636 372.58H539.247C539.247 372.58 537.647 382.315 528.869 389.799C520.08 397.283 515.291 398.037 524.88 402.527C534.458 407.018 558.425 408.514 579.981 408.514C601.536 408.514 623.103 393.547 627.092 389.056C631.081 384.566 627.892 371.838 627.892 362.114C627.892 352.391 637.47 306.722 637.47 306.722C637.47 306.722 659.025 270.788 660.626 258.814C662.226 246.84 655.906 222.764 653.436 219.144C650.967 215.523 645.447 207.169 635.07 200.428C624.692 193.687 583.158 180.97 583.158 180.97C583.158 180.97 586.347 178.719 583.158 174.983C579.969 171.235 576.769 170.493 576.769 170.493L575.169 179.473L575.157 179.462Z" fill="white"/>
<g style="mix-blend-mode:multiply">
<path d="M492.02 184.59C492.02 184.59 475.531 185.275 469.119 195.056C462.707 204.837 458.695 233.404 457.883 242.431C457.083 251.458 441.836 273.26 445.847 280.024" stroke="#363636" stroke-linecap="round" stroke-linejoin="round"/>
<path d="M433.812 338.34C433.812 338.34 433.812 353.145 438.751 358.703C443.691 364.261 446.648 366.106 458.498 366.106C470.348 366.106 469.363 360.548 469.363 360.548" stroke="#363636" stroke-linecap="round" stroke-linejoin="round"/>
<path d="M475.16 373.508C475.16 373.508 470.545 421.08 471.705 437.289C472.853 453.51 478.627 563.68 478.627 563.68H630.861C630.861 563.68 633.168 482.691 633.168 448.103C633.168 413.515 625.098 382.152 625.098 382.152C625.098 382.152 537.45 402.69 475.172 373.508H475.16Z" fill="#363636"/>
<path d="M577.418 182.27C577.418 182.27 596.237 185.402 608.401 190.287C620.564 195.172 648.346 203.317 650.955 215.524C653.564 227.73 648.346 252.154 643.14 279.026C637.934 305.887 630.2 326.528 629.249 341.705C627.162 374.773 630.721 382.872 624.912 388.917C617.549 396.575 585.836 409.269 546.749 406.008C507.673 402.748 475.879 388.105 471.542 371.002C467.206 353.911 476.749 319.021 471.542 270.985C466.336 222.961 476.401 187.015 492.043 184.567C507.673 182.13 549.358 180.494 558.043 180.494C566.727 180.494 577.441 182.246 577.441 182.246L577.418 182.27Z" fill="white" stroke="#363636" stroke-linecap="round" stroke-linejoin="round"/>
<path d="M529.182 222.369L536.209 241.189C536.209 241.189 517.135 324.95 511.105 341.891C507.175 352.96 504.519 368.044 503.151 377.175C502.386 382.28 503.51 387.467 506.316 391.899L511.94 400.787C513.853 403.815 518.144 404.639 521.182 402.551L530.353 396.239C535.328 392.816 538.377 387.455 538.656 381.677L545.242 244.009L561.301 227.068L545.242 203.538L529.182 222.358V222.369Z" fill="#C2B7BC"/>
<path d="M535.606 180.599C535.606 180.599 532.429 184.312 527.675 192.492C522.921 200.672 516.938 226.395 521.703 228.623C526.457 230.851 546.285 218.215 546.285 218.215C546.285 218.215 550.251 236.049 559.77 234.564C569.29 233.079 585.141 200.37 584.352 186.249C583.564 172.129 578.798 169.158 570.867 167.662C562.936 166.176 535.606 180.587 535.606 180.587V180.599Z" fill="white" stroke="#363636" stroke-linecap="round" stroke-linejoin="round"/>
<path d="M535.177 184.022C535.177 184.022 539.931 192.202 540.731 201.113C541.322 207.738 543.908 214.491 547.074 214.491C550.239 214.491 575.621 182.525 575.621 176.584C575.621 170.644 574.033 156.511 574.033 156.511C574.033 156.511 543.897 181.782 535.177 184.01V184.022Z" fill="white" stroke="#363636" stroke-linecap="round" stroke-linejoin="round"/>
<g style="mix-blend-mode:multiply">
<path d="M571.725 174.426C571.725 174.426 562.437 189.231 554.077 194.453C545.717 199.674 540.14 196.193 540.14 196.193L533.936 183.65C533.936 183.65 563.365 179.647 571.725 174.415V174.426Z" fill="#C2B7BC"/>
</g>
<path d="M527.779 86.0354C523.095 88.472 517.842 91.3495 516.033 96.3968C511.279 109.647 512.218 133.828 514.711 150.199C516.08 159.215 519.523 177.234 533.936 183.662C552.883 192.121 573.221 175.285 581.164 160.247C590.95 141.718 590.208 117.015 583.773 97.6731C581.442 90.665 576.978 86.0818 569.557 83.7844C556.338 79.6886 540.221 79.561 527.791 86.0354H527.779Z" fill="white" stroke="#363636" stroke-linecap="round" stroke-linejoin="round"/>
<path d="M531.177 127.667C531.177 127.667 530.492 145.686 530.492 152.125C530.492 158.565 533.241 159.853 537.357 159.853C541.473 159.853 547.653 152.125 547.653 152.125" fill="white"/>
<path d="M531.177 127.667C531.177 127.667 530.492 145.686 530.492 152.125C530.492 158.565 533.241 159.853 537.357 159.853C541.473 159.853 547.653 152.125 547.653 152.125" stroke="#363636" stroke-linecap="round" stroke-linejoin="round"/>
<path d="M547.039 121.54C547.039 121.54 554.367 120.577 561.046 124.766Z" fill="white"/>
<path d="M547.039 121.54C547.039 121.54 554.367 120.577 561.046 124.766" stroke="#363636" stroke-linecap="round" stroke-linejoin="round"/>
<path d="M529.762 116.597C529.762 116.597 522.805 115.449 518.909 119.95Z" fill="white"/>
<path d="M529.762 116.597C529.762 116.597 522.805 115.449 518.909 119.95" stroke="#363636" stroke-linecap="round" stroke-linejoin="round"/>
<path d="M546.842 136.751C546.842 136.751 550.715 140.023 560.71 137.958Z" fill="white"/>
<path d="M546.842 136.751C546.842 136.751 550.715 140.023 560.71 137.958" stroke="#363636" stroke-linecap="round" stroke-linejoin="round"/>
<path d="M517.448 134.106C517.448 134.106 522.26 139.258 527.744 136.032Z" fill="white"/>
<path d="M517.448 134.106C517.448 134.106 522.26 139.258 527.744 136.032" stroke="#363636" stroke-linecap="round" stroke-linejoin="round"/>
<path d="M583.761 97.673C583.761 97.673 585.431 71.6709 567.574 65.8811" stroke="#363636" stroke-miterlimit="10"/>
<path d="M588.167 98.0674C588.167 98.0674 573.743 69.1066 548.349 66.5308" stroke="#363636" stroke-miterlimit="10" stroke-linecap="round"/>
<path d="M595.727 108.359C593.663 99.3438 588.179 98.0559 588.179 98.0559C588.179 98.0559 583.703 88.6344 576.131 81.3478C576.259 81.3478 576.375 81.3245 576.502 81.3245C576.502 81.3245 575.215 79.967 572.432 78.1918C570.705 76.8922 568.849 75.7668 566.89 74.8966C565.591 74.3164 564.177 73.8755 562.669 73.5506C556.674 71.4505 548.581 69.7449 538.053 69.7449C510.584 69.7449 495.487 82.6125 494.107 94.2038C492.738 105.783 509.899 94.2038 507.835 96.1298C505.771 98.0559 492.727 105.783 501.655 111.573C507.209 115.17 513.517 113.789 518.955 110.784C521.877 109.171 531.107 104.472 532.765 101.896C531.536 103.799 529.345 106.839 526.365 109.636C521.553 114.138 517.436 115.425 517.436 115.425C517.436 115.425 525.68 116.064 533.913 110.274C542.157 104.484 553.822 98.6941 564.814 98.6941C575.807 98.6941 573.743 107.71 573.743 107.71C573.743 107.71 566.194 116.075 570.995 120.577C575.795 125.079 579.239 125.079 579.923 127.017C580.607 128.943 579.239 134.094 581.291 134.094C583.343 134.094 582.659 124.441 586.103 124.441C589.547 124.441 593.652 130.231 593.652 130.231C593.652 130.231 597.768 117.363 595.716 108.348L595.727 108.359Z" fill="#363636"/>
<path d="M579.934 136.682C579.934 136.682 582.683 122.526 590.231 122.526C597.779 122.526 595.043 131.542 592.295 140.546C589.547 149.561 582.683 150.837 582.683 150.837" fill="white"/>
<path d="M579.934 136.682C579.934 136.682 582.683 122.526 590.231 122.526C597.779 122.526 595.043 131.542 592.295 140.546C589.547 149.561 582.683 150.837 582.683 150.837" stroke="#363636" stroke-linecap="round" stroke-linejoin="round"/>
<path d="M624.483 220.687C624.483 220.687 595.692 234.459 591.066 251.318C586.439 268.177 570.194 302.278 563.736 307.604C563.736 307.604 554.553 314.844 564.095 319.729C573.65 324.614 582.335 343.341 585.802 352.287C589.28 361.244 602.986 357.253 603.426 350.755C603.867 344.258 610.604 334.871 616.946 331.17C623.289 327.468 649.459 288.25 657.947 265.915C666.435 243.579 654.329 216.753 646.537 216.289" fill="white"/>
<path d="M624.483 220.687C624.483 220.687 595.692 234.459 591.066 251.318C586.439 268.177 570.194 302.278 563.736 307.604C563.736 307.604 554.553 314.844 564.095 319.729C573.65 324.614 582.335 343.341 585.802 352.287C589.28 361.244 602.986 357.253 603.426 350.755C603.867 344.258 610.604 334.871 616.946 331.17C623.289 327.468 649.459 288.25 657.947 265.915C666.435 243.579 654.329 216.753 646.537 216.289" stroke="#363636" stroke-linecap="round" stroke-linejoin="round"/>
<path d="M431.759 232.974L444.282 298.101C444.734 300.665 447.308 302.417 450.057 302.023C452.967 301.605 454.892 298.971 454.254 296.28L441.349 231.222C440.78 228.844 438.554 227.985 435.992 228.379C433.325 228.797 431.319 230.468 431.759 232.963V232.974Z" fill="white" stroke="#363636" stroke-linecap="round" stroke-linejoin="round"/>
<path d="M449.013 264.244C449.013 264.244 434.82 258.199 431.806 259C428.791 259.812 427.933 268.27 427.933 268.27C427.933 268.27 428.362 271.902 429.649 276.74C430.936 281.579 435.238 288.842 439.969 291.256C444.7 293.681 451.587 293.681 454.161 291.256C456.735 288.831 455.019 279.56 455.019 279.56" fill="white"/>
<path d="M449.013 264.244C449.013 264.244 434.82 258.199 431.806 259C428.791 259.812 427.933 268.27 427.933 268.27C427.933 268.27 428.362 271.902 429.649 276.74C430.936 281.579 435.238 288.842 439.969 291.256C444.7 293.681 451.587 293.681 454.161 291.256C456.735 288.831 455.019 279.56 455.019 279.56" stroke="#363636" stroke-linecap="round" stroke-linejoin="round"/>
<path d="M455.901 255.368C455.901 255.368 448.746 255.217 448.746 260.485C448.746 265.752 448.12 275.116 449.999 276.88C451.877 278.632 458.741 278.632 459.994 272.784C460.747 269.257 461.142 264.511 461.35 261.297C461.524 258.489 459.507 255.832 456.538 255.414C456.318 255.379 456.109 255.368 455.901 255.368Z" fill="white" stroke="#363636" stroke-linecap="round" stroke-linejoin="round"/>
<path d="M412.627 205.847L419.26 241.027C420.929 250.402 430.321 256.795 440.351 255.368C450.984 253.859 458.022 244.229 455.692 234.39L447.668 199.465C445.604 190.786 437.464 187.63 428.107 189.092C418.378 190.612 411.015 196.727 412.639 205.847H412.627Z" fill="white" stroke="#363636" stroke-linecap="round" stroke-linejoin="round"/>
<g style="mix-blend-mode:multiply">
<path d="M430.959 188.802C430.02 188.848 429.069 188.941 428.095 189.092C418.367 190.612 411.004 196.727 412.627 205.847L419.26 241.027C420.929 250.402 430.321 256.795 440.351 255.368C441.882 255.147 443.331 254.753 444.688 254.219L430.959 188.814V188.802Z" fill="#C2B7BC"/>
</g>
<path d="M446.798 197.203C448.224 203.515 441.615 210.163 432.049 212.066C422.472 213.969 413.566 210.383 412.14 204.083C410.714 197.771 417.323 191.123 426.889 189.22C436.467 187.317 445.372 190.902 446.798 197.203Z" fill="white" stroke="#363636" stroke-linecap="round" stroke-linejoin="round"/>
<path d="M447.853 269.698C449.94 275.302 447.332 281.242 442.033 282.971C436.734 284.7 430.762 281.567 428.675 275.963C426.588 270.359 429.197 264.418 434.496 262.689C439.795 260.961 445.766 264.093 447.853 269.698Z" fill="#363636"/>
<path d="M425.602 272.354L380.59 305.399C380.59 305.399 376.497 309.751 381.355 309.727C386.225 309.704 434.403 280.894 434.403 280.894C434.403 280.894 441.383 271.728 425.591 272.343L425.602 272.354Z" fill="#363636"/>
<path d="M554.518 353.54C555.828 347.089 543.989 329.255 536.36 326.354C536.36 326.354 522.932 319.021 511.778 316.724C500.623 314.427 479.879 312.361 463.043 304.019L446.207 295.665C446.207 295.665 443.841 279.212 442.45 274.234C441.047 269.257 437.8 265.799 430.008 265.335C422.205 264.871 412.894 261.042 410.134 263.327C407.363 265.613 408.604 273.027 408.604 273.027L397.461 279.27C392.938 279.003 387.292 278.643 385.436 278.643C382.445 278.643 378.955 283.783 383.442 285.187C387.929 286.591 402.389 287.519 402.389 287.519C409.508 295.375 416.129 304.251 423.689 311.665C427.794 315.691 434.867 316.283 438.508 319.683C438.508 319.683 482.616 353.227 496.681 360.27C520.984 372.429 547.908 374.367 553.335 371.42C558.762 368.484 553.242 359.991 554.553 353.551L554.518 353.54Z" fill="white" stroke="#363636" stroke-linecap="round" stroke-linejoin="round"/>
<g style="mix-blend-mode:multiply">
<path d="M532.046 326.482C532.046 326.482 538.957 340.278 540.406 349.827C541.856 359.365 532.406 365.502 524.405 364.818C516.404 364.133 487.323 353.911 487.323 353.911C487.323 353.911 514.433 370.492 533.855 370.956C553.289 371.408 557.846 374.367 560.756 368.229C563.666 362.091 562.205 341.647 553.486 334.836C544.755 328.025 535.304 320.193 532.035 326.494L532.046 326.482Z" fill="#C2B7BC"/>
</g>
<path d="M595.948 352.762C595.669 351.44 595.461 350.105 595.287 348.771C594.602 343.457 591.715 329.87 579.842 318.963C564.733 305.075 553.057 306.107 549.393 307.616C545.717 309.124 538.087 316.457 538.087 316.457C538.087 316.457 525.414 319.161 532.046 326.482C538.679 333.803 549.532 344.838 550.599 355.292C551.665 365.746 550.854 377.813 563.585 374.239C576.317 370.677 578.276 368.194 589.106 366.245C597.524 364.737 596.724 356.406 595.936 352.762H595.948Z" fill="white" stroke="#363636" stroke-linecap="round" stroke-linejoin="round"/>
<path d="M404.708 275.534C404.708 275.534 418.9 275.534 420.628 277.146C422.344 278.759 422.773 279.966 422.773 279.966" stroke="#363636" stroke-linecap="round" stroke-linejoin="round"/>
<path d="M408.58 273.016C408.58 273.016 414.169 271.902 421.057 271.902C427.944 271.902 431.377 273.921 431.377 273.921" stroke="#363636" stroke-linecap="round" stroke-linejoin="round"/>
<path d="M544.523 319.88C544.523 319.88 567.783 328.907 568.594 341.682" stroke="#363636" stroke-linecap="round" stroke-linejoin="round"/>
<path d="M571.006 349.2C571.006 349.2 571.806 356.719 571.806 360.478" stroke="#363636" stroke-linecap="round" stroke-linejoin="round"/>
<path d="M537.763 166.501C537.763 166.501 547.491 169.1 553.741 162.591Z" fill="white"/>
<path d="M537.763 166.501C537.763 166.501 547.491 169.1 553.741 162.591" stroke="#363636" stroke-linecap="round" stroke-linejoin="round"/>
<path d="M523.605 414.594C523.605 414.594 527.06 455.68 530.527 459.996C533.983 464.324 542.064 469.731 542.064 469.731" stroke="white" stroke-linecap="round" stroke-linejoin="round"/>
<path d="M563.968 453.51C563.968 453.51 545.52 476.217 545.52 481.612C545.52 487.008 546.668 562.601 546.668 562.601" stroke="white" stroke-miterlimit="10" stroke-linecap="round"/>
<path d="M622.79 398.374C622.79 398.374 607.798 417.832 573.198 417.832L570.96 409.118" stroke="white" stroke-linecap="round" stroke-linejoin="round"/>
<path d="M404.499 438.728H195.472V564.562H404.499V438.728Z" fill="white" stroke="#363636" stroke-miterlimit="10"/>
<path d="M223.347 564.562V478.781C223.347 475.173 220.228 472.249 216.378 472.249C212.529 472.249 209.41 475.173 209.41 478.781V564.562H223.347Z" fill="#51D289" stroke="#363636" stroke-miterlimit="10"/>
<path d="M379.419 564.562V487.495C379.419 483.887 376.299 480.963 372.45 480.963C368.6 480.963 365.481 483.887 365.481 487.495V564.562H379.419Z" fill="#51D289" stroke="#363636" stroke-miterlimit="10"/>
<path d="M254.005 564.562V489.236C254.005 485.627 250.886 482.703 247.036 482.703C243.186 482.703 240.067 485.627 240.067 489.236V564.562H254.005Z" fill="#51D289" stroke="#363636" stroke-miterlimit="10"/>
<path d="M294.924 564.562V495.791C294.924 490.964 290.75 487.066 285.613 487.066C280.465 487.066 276.302 490.976 276.302 495.791V564.562H294.924Z" fill="#51D289" stroke="#363636" stroke-miterlimit="10"/>
<path d="M344.157 564.562V494.921C344.157 490.094 339.983 486.196 334.846 486.196C329.698 486.196 325.536 490.106 325.536 494.921V564.562H344.157Z" fill="#51D289" stroke="#363636" stroke-miterlimit="10"/>
<path d="M404.499 438.728H195.472V564.562H404.499V438.728Z" stroke="#363636" stroke-miterlimit="10"/>
<path d="M299.991 475.741C357.709 475.741 404.499 459.17 404.499 438.728C404.499 418.286 357.709 401.715 299.991 401.715C242.273 401.715 195.484 418.286 195.484 438.728C195.484 459.17 242.273 475.741 299.991 475.741Z" fill="white" stroke="#363636" stroke-linecap="round" stroke-linejoin="round"/>
<path d="M299.991 475.741C357.709 475.741 404.499 459.17 404.499 438.728C404.499 418.286 357.709 401.715 299.991 401.715C242.273 401.715 195.484 418.286 195.484 438.728C195.484 459.17 242.273 475.741 299.991 475.741Z" stroke="#363636" stroke-linecap="round" stroke-linejoin="round"/>
<g style="mix-blend-mode:multiply">
<path d="M293.486 464.22C335.861 464.22 370.212 453.196 370.212 439.598C370.212 426 335.861 414.977 293.486 414.977C251.112 414.977 216.761 426 216.761 439.598C216.761 453.196 251.112 464.22 293.486 464.22Z" fill="#C2B7BC"/>
</g>
<path d="M408.314 345.801C408.314 335.706 406.366 327.085 402.702 319.567C402.157 319.184 400.29 317.896 397.066 315.657C393.182 312.965 389.309 313.301 389.309 313.301C389.309 313.301 386.723 308.277 384.138 305.666C381.552 303.067 376.381 304.529 376.381 304.529C376.381 304.529 374.444 301.965 371.847 299.366C369.261 296.767 360.205 296.744 360.205 296.744C360.205 296.744 356.97 288.633 353.735 284.166C352.297 282.182 351.52 281.219 351.08 280.743C339.125 275.859 332.412 275.128 316.99 270.997C282.564 261.703 274.134 257.503 274.134 245.981C274.134 237.418 282.216 231.721 298.727 232.858C299.11 232.882 299.493 232.928 299.887 232.963L341.444 266.82L367.591 260.334L401.67 217.566C379.894 199.604 353.897 187.932 322.277 182.455V161.709L283.63 159.041L257.483 165.527L263.745 177.826L264.313 182.061C227.776 189.359 205.293 213.087 205.293 247.814C205.293 294.899 245.691 310.528 298.032 325.333C331.403 334.883 339.832 337.11 339.832 347.971C339.832 357.845 330 363.101 311.378 361.813C282.923 359.852 256.219 348.458 231.638 328.652L205.49 335.138L186.857 376.015L216.077 388.987L218.79 387.095C238.258 398.896 260.278 407.064 283.619 411.601V433.333L293.092 433.983L296.118 442.476L322.266 435.99L322.764 415.232C375.163 414.757 408.337 389.753 408.337 345.766L408.314 345.801Z" fill="white" stroke="#363636" stroke-linecap="round" stroke-linejoin="round"/>
<g style="mix-blend-mode:multiply">
<path d="M401.635 217.577L365.898 226.453L341.421 266.82L367.568 260.334L401.635 217.577Z" fill="#C2B7BC"/>
</g>
<g style="mix-blend-mode:multiply">
<path d="M296.107 442.511L322.242 436.025V415.267L294.24 418.4L296.107 442.511Z" fill="#C2B7BC"/>
</g>
<g style="mix-blend-mode:multiply">
<path d="M288.373 289.376C291.156 288.506 319.031 287.635 319.031 287.635L336.771 285.941L341.328 278.922L347.416 279.328C337.595 275.684 330.753 274.698 316.978 270.997C282.552 261.703 274.122 257.503 274.122 245.981C274.122 239.565 278.668 234.749 287.898 233.229C258.863 222.926 225.573 242.303 235.418 264.116C245.633 286.754 285.578 290.246 288.373 289.376Z" fill="#C2B7BC"/>
</g>
<g style="mix-blend-mode:multiply">
<path d="M311.355 361.836C282.9 359.875 256.196 348.481 231.614 328.675L205.467 335.161C205.467 335.161 214.048 356.429 246.561 369.494C279.074 382.559 314.381 373.845 319.019 370.364C322.138 368.032 324.828 363.739 326.266 361.163C322.185 361.987 317.199 362.23 311.343 361.836H311.355Z" fill="#C2B7BC"/>
</g>
<path d="M408.314 345.801C408.314 335.706 406.366 327.085 402.702 319.567C402.157 319.184 400.29 317.896 397.066 315.657C393.182 312.965 389.309 313.301 389.309 313.301C389.309 313.301 386.723 308.277 384.138 305.666C381.552 303.067 376.381 304.529 376.381 304.529C376.381 304.529 374.444 301.965 371.847 299.366C369.261 296.767 360.205 296.744 360.205 296.744C360.205 296.744 356.97 288.633 353.735 284.166C352.297 282.182 351.52 281.219 351.08 280.743C339.125 275.859 332.412 275.128 316.99 270.997C282.564 261.703 274.134 257.503 274.134 245.981C274.134 237.418 282.216 231.721 298.727 232.858C299.11 232.882 299.493 232.928 299.887 232.963L341.444 266.82L367.591 260.334L401.67 217.566C379.894 199.604 353.897 187.932 322.277 182.455V161.709L283.63 159.041L257.483 165.527L263.745 177.826L264.313 182.061C227.776 189.359 205.293 213.087 205.293 247.814C205.293 294.899 245.691 310.528 298.032 325.333C331.403 334.883 339.832 337.11 339.832 347.971C339.832 357.845 330 363.101 311.378 361.813C282.923 359.852 256.219 348.458 231.638 328.652L205.49 335.138L186.857 376.015L216.077 388.987L218.79 387.095C238.258 398.896 260.278 407.064 283.619 411.601V433.333L293.092 433.983L296.118 442.476L322.266 435.99L322.764 415.232C375.163 414.757 408.337 389.753 408.337 345.766L408.314 345.801Z" stroke="#363636" stroke-linecap="round" stroke-linejoin="round"/>
<path d="M370.931 322.154C367.046 319.462 363.174 319.799 363.174 319.799C363.174 319.799 360.588 314.775 358.002 312.164C355.416 309.565 350.245 311.027 350.245 311.027C350.245 311.027 348.309 308.463 345.711 305.864C343.125 303.265 334.07 303.241 334.07 303.241C334.07 303.241 330.835 295.131 327.599 290.664C326.162 288.68 325.385 287.717 324.944 287.241C312.99 282.356 306.276 281.625 290.854 277.495C256.428 268.201 247.998 264 247.998 252.479C247.998 243.916 256.08 238.219 272.592 239.356C294.379 240.853 318.961 250.123 341.444 266.832L375.522 224.063C353.747 206.102 327.75 194.43 296.13 188.953V168.207L257.483 165.538V186.284C209.711 188.257 179.146 213.806 179.146 254.312C179.146 301.397 219.544 317.026 271.884 331.831C305.256 341.38 313.685 343.608 313.685 354.468C313.685 364.342 303.852 369.598 285.231 368.31C256.776 366.349 230.072 354.955 205.49 335.149L167.551 375.017C192.144 397.132 223.405 411.473 257.483 418.098V433.658L296.13 442.488V421.742C348.819 421.428 382.201 396.401 382.201 352.275C382.201 342.181 380.253 333.56 376.589 326.041C376.044 325.658 374.177 324.37 370.954 322.131L370.931 322.154Z" fill="#51D289" stroke="#363636" stroke-linecap="round" stroke-linejoin="round"/>
<path d="M370.931 322.154C367.046 319.462 363.174 319.799 363.174 319.799C363.174 319.799 360.588 314.775 358.002 312.164C355.416 309.565 350.245 311.027 350.245 311.027C350.245 311.027 348.309 308.463 345.711 305.864C343.125 303.265 334.07 303.241 334.07 303.241C334.07 303.241 330.835 295.131 327.599 290.664C326.162 288.68 325.385 287.717 324.944 287.241C312.99 282.356 306.276 281.625 290.854 277.495C256.428 268.201 247.998 264 247.998 252.479C247.998 243.916 256.08 238.219 272.592 239.356C294.379 240.853 318.961 250.123 341.444 266.832L375.522 224.063C353.747 206.102 327.75 194.43 296.13 188.953V168.207L257.483 165.538V186.284C209.711 188.257 179.146 213.806 179.146 254.312C179.146 301.397 219.544 317.026 271.884 331.831C305.256 341.38 313.685 343.608 313.685 354.468C313.685 364.342 303.852 369.598 285.231 368.31C256.776 366.349 230.072 354.955 205.49 335.149L167.551 375.017C192.144 397.132 223.405 411.473 257.483 418.098V433.658L296.13 442.488V421.742C348.819 421.428 382.201 396.401 382.201 352.275C382.201 342.181 380.253 333.56 376.589 326.041C376.044 325.658 374.177 324.37 370.954 322.131L370.931 322.154Z" stroke="#363636" stroke-linecap="round" stroke-linejoin="round"/>
<path d="M375.499 224.063L392.127 219.643" stroke="#363636" stroke-linecap="round" stroke-linejoin="round"/>
<path d="M296.107 168.207L313.697 164.865" stroke="#363636" stroke-linecap="round" stroke-linejoin="round"/>
<path d="M296.107 188.953L313.697 185.762" stroke="#363636" stroke-linecap="round" stroke-linejoin="round"/>
<path d="M324.921 287.241L336.771 285.941L341.386 281.625L351.068 280.755" stroke="#363636" stroke-linecap="round" stroke-linejoin="round"/>
<path d="M376.554 326.064L380.59 322.699L386.747 321.98H390.585H399.049L402.702 319.578" stroke="#363636" stroke-linecap="round" stroke-linejoin="round"/>
<path d="M397.438 279.258C397.438 279.258 410.285 279.653 414.366 281.184" stroke="#363636" stroke-linecap="round" stroke-linejoin="round"/>
<path d="M481.201 400.357C481.201 400.357 493.052 424.422 513.784 438.31" stroke="white" stroke-linecap="round" stroke-linejoin="round"/>
<path d="M596.724 258.744C596.724 258.744 603.635 244.856 624.367 251.342" stroke="#363636" stroke-linecap="round" stroke-linejoin="round"/>
<path d="M598.707 307.801C598.707 307.801 613.514 312.431 608.586 332.794" stroke="#363636" stroke-linecap="round" stroke-linejoin="round"/>
<path d="M430.507 320.727C430.507 320.727 433.812 342.041 442.694 350.372C451.575 358.703 466.394 345.743 466.394 345.743" stroke="#363636" stroke-linecap="round" stroke-linejoin="round"/>
<path d="M380.335 310.853C380.335 311.746 379.558 312.477 378.607 312.477C377.656 312.477 376.879 311.758 376.879 310.853C376.879 309.948 377.656 309.229 378.607 309.229C379.558 309.229 380.335 309.959 380.335 310.853Z" fill="white" stroke="#363636" stroke-linecap="round" stroke-linejoin="round"/>
<path d="M372.948 282.994C374.305 282.994 375.407 284.027 375.407 285.303C375.407 286.58 374.305 287.612 372.948 287.612C371.592 287.612 370.49 286.58 370.49 285.303C370.49 284.027 371.592 282.994 372.948 282.994Z" fill="white" stroke="#363636" stroke-linecap="round" stroke-linejoin="round"/>
<path d="M364.751 310.041C366.107 310.041 367.209 311.073 367.209 312.35C367.209 313.626 366.107 314.658 364.751 314.658C363.394 314.658 362.292 313.626 362.292 312.35C362.292 311.073 363.394 310.041 364.751 310.041Z" fill="white" stroke="#363636" stroke-linecap="round" stroke-linejoin="round"/>
<path d="M376.195 294.864C376.195 295.758 375.418 296.489 374.467 296.489C373.517 296.489 372.74 295.769 372.74 294.864C372.74 293.959 373.517 293.24 374.467 293.24C375.418 293.24 376.195 293.959 376.195 294.864Z" fill="white" stroke="#363636" stroke-linecap="round" stroke-linejoin="round"/>
<path d="M349.294 294.864C349.294 295.758 348.517 296.489 347.566 296.489C346.616 296.489 345.839 295.769 345.839 294.864C345.839 293.959 346.616 293.24 347.566 293.24C348.517 293.24 349.294 293.959 349.294 294.864Z" fill="white" stroke="#363636" stroke-linecap="round" stroke-linejoin="round"/>
<path d="M534.562 413.91L539.212 452.222C539.212 452.222 536.719 459.938 530.527 459.996" stroke="white" stroke-linecap="round" stroke-linejoin="round"/>
<path d="M593.083 416.52C593.083 416.52 596.794 430.455 616.309 438.287" stroke="white" stroke-linecap="round" stroke-linejoin="round"/>
<path d="M561.498 409.129L564.408 419.352" stroke="white" stroke-linecap="round" stroke-linejoin="round"/>
</g>
</g>
</g>
<defs>
<clipPath id="clip0_43_536">
<rect width="800" height="550" fill="white"/>
</clipPath>
</defs>
</svg>
